<?xml version="1.0" encoding="UTF-8" standalone="no"?>
<svg width="45px" height="45px" viewBox="0 0 45 45" version="1.1" xmlns="http://www.w3.org/2000/svg" xmlns:xlink="http://www.w3.org/1999/xlink" xmlns:sketch="http://www.bohemiancoding.com/sketch/ns">
    <!-- Generator: Sketch 3.2.2 (9983) - http://www.bohemiancoding.com/sketch -->
    <title>close33</title>
    <desc>Created with Sketch.</desc>
    <defs></defs>
    <g id="Page-1" stroke="none" stroke-width="1" fill="none" fill-rule="evenodd" sketch:type="MSPage">
        <g id="Menu-Page" sketch:type="MSArtboardGroup" transform="translate(-38.000000, -63.000000)" stroke="#34C9AB" fill="#34C9AB">
            <g id="close33" sketch:type="MSLayerGroup" transform="translate(39.000000, 64.000000)">
                <g id="Group" sketch:type="MSShapeGroup">
                    <g transform="translate(13.688889, 13.688889)" id="Shape">
                        <path d="M1.49893333,14.3772444 L14.3772444,1.49893333"></path>
                        <path d="M1.49893333,15.1105778 C1.3112,15.1105778 1.12346667,15.0392 0.980711111,14.8954667 C0.694222222,14.6089778 0.694222222,14.1445333 0.980711111,13.8580444 L13.8590222,0.979733333 C14.1455111,0.693244444 14.6099556,0.693244444 14.8964444,0.979733333 C15.1829333,1.26622222 15.1829333,1.73066667 14.8964444,2.01715556 L2.01715556,14.8954667 C1.8744,15.0392 1.68666667,15.1105778 1.49893333,15.1105778 L1.49893333,15.1105778 Z"></path>
                    </g>
                    <g transform="translate(13.688889, 13.688889)" id="Shape">
                        <path d="M1.49893333,1.49893333 L14.3772444,14.3772444"></path>
                        <path d="M14.3772444,15.1105778 C14.1895111,15.1105778 14.0017778,15.0392 13.8590222,14.8954667 L0.979733333,2.01715556 C0.693244444,1.73066667 0.693244444,1.26622222 0.979733333,0.979733333 C1.26622222,0.693244444 1.73066667,0.693244444 2.01715556,0.979733333 L14.8954667,13.8580444 C15.1819556,14.1445333 15.1819556,14.6089778 14.8954667,14.8954667 C14.7527111,15.0392 14.5649778,15.1105778 14.3772444,15.1105778 L14.3772444,15.1105778 Z"></path>
                    </g>
                    <path d="M21.6274667,43.2539556 C9.70151111,43.2539556 0,33.5524444 0,21.6274667 C0,9.70248889 9.70151111,0 21.6274667,0 C33.5534222,0 43.2549333,9.70151111 43.2549333,21.6274667 C43.2549333,33.5534222 33.5524444,43.2539556 21.6274667,43.2539556 L21.6274667,43.2539556 Z M21.6274667,1.46666667 C10.5111111,1.46666667 1.46666667,10.5111111 1.46666667,21.6274667 C1.46666667,32.7438222 10.5111111,41.7882667 21.6274667,41.7882667 C32.7438222,41.7882667 41.7882667,32.7438222 41.7882667,21.6274667 C41.7882667,10.5111111 32.7438222,1.46666667 21.6274667,1.46666667 L21.6274667,1.46666667 Z" id="Shape"></path>
                </g>
            </g>
        </g>
    </g>
</svg>