<?xml version="1.0" encoding="UTF-8" standalone="no"?>
<svg width="14px" height="20px" viewBox="0 0 14 20" version="1.1" xmlns="http://www.w3.org/2000/svg" xmlns:xlink="http://www.w3.org/1999/xlink" xmlns:sketch="http://www.bohemiancoding.com/sketch/ns">
    <!-- Generator: Sketch 3.2.2 (9983) - http://www.bohemiancoding.com/sketch -->
    <title>facebook30</title>
    <desc>Created with Sketch.</desc>
    <defs></defs>
    <g id="Page-1" stroke="none" stroke-width="1" fill="none" fill-rule="evenodd" sketch:type="MSPage">
        <g id="Menu-Page" sketch:type="MSArtboardGroup" transform="translate(-218.000000, -456.000000)" fill="#34C9AB">
            <g id="Software-Engineer-2-+-facebook30" sketch:type="MSLayerGroup" transform="translate(218.000000, 454.000000)">
                <g id="facebook30" transform="translate(0.000000, 2.000000)" sketch:type="MSShapeGroup">
                    <path d="M13.6691935,4.97777778 C13.5969355,4.71088889 13.4499355,4.42666667 13.3413226,4.17777778 C12.0409032,1.10222222 9.19958065,0 6.9053871,0 C3.83419355,0 0.451612903,2.02666667 0,6.20422222 L0,7.05777778 C0,7.09333333 0.0124193548,7.41333333 0.0302580645,7.57333333 C0.283387097,9.56422222 1.8796129,11.68 3.07187097,13.6708889 C4.35445161,15.804 5.68535484,17.9022222 7.00406452,19.9997778 C7.81696774,18.6311111 8.62716129,17.2444444 9.42154839,15.9108889 C9.63832258,15.5197778 9.88964516,15.1286667 10.1064194,14.7553333 C10.2509355,14.5066667 10.526871,14.2577778 10.6530968,14.0264444 C11.9354516,11.7155556 14,9.38666667 14,7.09333333 L14,6.15111111 C14,5.90244444 13.6870323,5.03133333 13.6691935,4.97777778 L13.6691935,4.97777778 Z M6.9616129,9.26222222 C6.05883871,9.26222222 5.07070968,8.818 4.58296774,7.59111111 C4.51025806,7.39577778 4.51612903,7.00444444 4.51612903,6.96866667 L4.51612903,6.41755556 C4.51612903,4.85355556 5.86554839,4.14222222 7.03951613,4.14222222 C8.48467742,4.14222222 9.60264516,5.28022222 9.60264516,6.70244444 C9.60241935,8.12466667 8.40677419,9.26222222 6.9616129,9.26222222 L6.9616129,9.26222222 Z" id="Facebook_Places"></path>
                </g>
            </g>
        </g>
    </g>
</svg>